# xmcd
#
# Track frame offsets: 
#        150
#        16699
#        30153
#        43511
#
# Disc length: 1068 seconds
#
# Revision: 0
# Processed by: cddbd v1.5.2PL0 Copyright (c) Steve Scherf et al.
# Submitted via: ExactAudioCopy v0.99pb4
#
DISCID=1b042a04
DTITLE=My Little Pony - Songs In A Major
DYEAR=2007
DGENRE=Indie
TTITLE0=MacGyver Blues
TTITLE1=A Song To You On Your 40th Birthday
TTITLE2=The West Wing
TTITLE3=The Ballad of Johnny Diesel
EXTD=
EXTT0=
EXTT1=
EXTT2=
EXTT3=
PLAYORDER=
